<svg width="10" height="14" viewBox="0 0 10 14" fill="none" xmlns="http://www.w3.org/2000/svg">
<path d="M4.88129 0.430664C2.36571 0.430664 0.319092 2.47728 0.319092 4.99285C0.319092 8.15466 4.88578 13.5557 4.88578 13.5557C4.88578 13.5557 9.44349 7.99917 9.44349 4.99285C9.44349 2.47728 7.39695 0.430664 4.88129 0.430664ZM6.2578 6.32866C5.87825 6.70814 5.37981 6.89791 4.88129 6.89791C4.38285 6.89791 3.88426 6.70814 3.50486 6.32866C2.74583 5.56971 2.74583 4.33476 3.50486 3.57573C3.8724 3.20803 4.3613 3.00552 4.88129 3.00552C5.40128 3.00552 5.8901 3.20811 6.2578 3.57573C7.01683 4.33476 7.01683 5.56971 6.2578 6.32866Z" fill="#0092B5"/>
</svg>
