<svg width="166" height="71" viewBox="0 0 166 71" fill="none" xmlns="http://www.w3.org/2000/svg">
<path d="M22.9175 26H17.6367V5.42383H8.44238V26H3.14453V1.01465H22.9175V26ZM48.9966 26H43.7158V5.42383H37.5977L37.3242 7.71387C36.6178 13.5358 35.9912 17.6203 35.4443 19.9673C34.9089 22.3029 34.1284 23.9492 33.103 24.9062C32.089 25.8633 30.682 26.3418 28.8818 26.3418C27.9248 26.3418 27.0817 26.2165 26.3525 25.9658V21.625C27.0133 21.8529 27.6343 21.9668 28.2153 21.9668C28.8192 21.9668 29.2977 21.6934 29.6509 21.1465C30.0041 20.5882 30.3345 19.5628 30.6421 18.0703C30.9611 16.5664 31.377 14.1112 31.8896 10.7046C32.4137 7.28662 32.8581 4.05664 33.2227 1.01465H48.9966V26ZM70.5981 26L68.7866 20.0527H59.6777L57.8662 26H52.1582L60.9766 0.912109H67.4536L76.3062 26H70.5981ZM67.522 15.6094C65.8472 10.2204 64.9015 7.17269 64.6851 6.46631C64.48 5.75993 64.3319 5.20166 64.2407 4.7915C63.8647 6.24984 62.7881 9.85579 61.0107 15.6094H67.522ZM99.9414 26H94.6606V15.2163H84.7656V26H79.4678V1.01465H84.7656V10.8071H94.6606V1.01465H99.9414V26ZM120.654 26H106.265V1.01465H120.654V5.35547H111.562V10.8413H120.022V15.1821H111.562V21.625H120.654V26ZM135.522 26H130.225V5.42383H123.44V1.01465H142.307V5.42383H135.522V26ZM160.251 26L158.44 20.0527H149.331L147.52 26H141.812L150.63 0.912109H157.107L165.959 26H160.251ZM157.175 15.6094C155.5 10.2204 154.555 7.17269 154.338 6.46631C154.133 5.75993 153.985 5.20166 153.894 4.7915C153.518 6.24984 152.441 9.85579 150.664 15.6094H157.175Z" fill="#F4544D"/>
<path d="M12.7832 70H7.48535V49.4238H0.700684V45.0146H19.5679V49.4238H12.7832V70ZM37.8027 70H23.4131V45.0146H37.8027V49.3555H28.7109V54.8413H37.1704V59.1821H28.7109V65.625H37.8027V70ZM62.8052 70H57.5244V49.4238H48.3301V70H43.0322V45.0146H62.8052V70ZM88.8843 70H83.6035V49.4238H77.4854L77.2119 51.7139C76.5055 57.5358 75.8789 61.6203 75.332 63.9673C74.7965 66.3029 74.0161 67.9492 72.9907 68.9062C71.9767 69.8633 70.5697 70.3418 68.7695 70.3418C67.8125 70.3418 66.9694 70.2165 66.2402 69.9658V65.625C66.901 65.8529 67.522 65.9668 68.103 65.9668C68.7069 65.9668 69.1854 65.6934 69.5386 65.1465C69.8918 64.5882 70.2222 63.5628 70.5298 62.0703C70.8488 60.5664 71.2646 58.1112 71.7773 54.7046C72.3014 51.2866 72.7458 48.0566 73.1104 45.0146H88.8843V70ZM110.486 70L108.674 64.0527H99.5654L97.7539 70H92.0459L100.864 44.9121H107.341L116.194 70H110.486ZM107.41 59.6094C105.735 54.2204 104.789 51.1727 104.573 50.4663C104.368 49.7599 104.22 49.2017 104.128 48.7915C103.752 50.2498 102.676 53.8558 100.898 59.6094H107.41Z" fill="#0092B5"/>
</svg>
